<?xml version="1.0" encoding="UTF-8" standalone="no"?>
<!-- Created with Inkscape (http://www.inkscape.org/) -->

<svg
   version="1.1"
   id="svg1"
   width="950"
   height="950"
   viewBox="0 0 950 950"
   sodipodi:docname="readscore_logo.svg"
   xml:space="preserve"
   inkscape:version="1.4.3 (0d15f75, 2025-12-25)"
   xmlns:inkscape="http://www.inkscape.org/namespaces/inkscape"
   xmlns:sodipodi="http://sodipodi.sourceforge.net/DTD/sodipodi-0.dtd"
   xmlns="http://www.w3.org/2000/svg"
   xmlns:svg="http://www.w3.org/2000/svg"><defs
     id="defs1" /><sodipodi:namedview
     id="namedview1"
     pagecolor="#ffffff"
     bordercolor="#cccccc"
     borderopacity="1"
     inkscape:showpageshadow="0"
     inkscape:pageopacity="1"
     inkscape:pagecheckerboard="0"
     inkscape:deskcolor="#d1d1d1"
     inkscape:zoom="0.5"
     inkscape:cx="460"
     inkscape:cy="327"
     inkscape:window-width="2560"
     inkscape:window-height="1529"
     inkscape:window-x="-8"
     inkscape:window-y="-8"
     inkscape:window-maximized="1"
     inkscape:current-layer="svg1"
     showgrid="false" /><g
     id="g8"
     transform="matrix(4,0,0,4,-1469.3501,-849.3054)"><path
       style="display:inline;fill:#e0c178;stroke:none;stroke-width:2.31525;stroke-linecap:round;stroke-linejoin:round;stroke-dasharray:none;stroke-opacity:1"
       d="m 499.52753,397.04385 c -11.27617,-9.10917 -27.17667,-15.14578 -45.74934,-17.36869 -2.75052,-0.3292 -5.37601,-0.66985 -5.83443,-0.75701 -0.83349,-0.15847 -0.83349,-0.15847 -0.83349,-29.78661 v -29.62815 l 1.94481,0.0245 c 1.06964,0.0134 3.44509,0.24137 5.27877,0.50653 4.19204,0.60622 3.88962,0.93723 3.88962,-4.25721 0,-5.20657 -0.64917,-4.83551 6.10762,-3.49107 5.80208,1.15447 5.37602,1.55303 5.37602,-5.02905 0,-6.65143 -0.34817,-6.4329 5.67717,-3.56318 9.89386,4.71221 19.51135,12.42266 25.61107,20.53268 1.86286,2.47683 2.08647,2.45199 5.0025,-0.55566 2.11573,-2.1822 7.95421,-6.35096 8.346,-5.95917 0.93202,0.932 -2.96077,7.82274 -5.20359,9.21101 -3.78992,2.34589 -3.68569,1.4514 -3.68569,31.63115 0,29.78524 -0.084,28.73265 2.10049,26.29376 8.90582,-9.94257 19.41023,-16.11467 34.66568,-20.36859 0.7147,-0.1993 0.67373,-47.5111 -0.0414,-47.78551 -0.27743,-0.1065 -1.63552,0.0688 -3.01797,0.38936 -1.38243,0.32062 -2.59933,0.49712 -2.70418,0.39227 -0.20496,-0.20496 1.61057,-3.79111 2.29416,-4.53163 0.34469,-0.37336 6.37598,-1.58337 7.91697,-1.58829 0.37028,-0.001 0.44596,5.75787 0.37044,28.18936 l -0.0949,28.19086 -1.48176,0.48633 c -0.81497,0.2675 -2.48195,0.6862 -3.7044,0.93047 -6.08535,1.21595 -15.81867,5.96362 -21.96553,10.71423 -4.81044,3.71774 -4.72544,4.05604 0.4752,1.89159 7.73294,-3.21835 17.20717,-5.7985 26.1092,-7.11034 2.96066,-0.4363 5.59138,-0.95707 5.84606,-1.15725 0.51776,-0.40698 0.6931,-46.43493 0.17955,-47.13392 -0.1497,-0.20375 -0.60556,-0.55447 -1.01304,-0.7794 -3.12187,-1.72324 -0.8559,-5.63284 3.34755,-5.77569 l 3.32037,-0.11287 v 29.62873 29.62871 l -4.35016,0.4568 c -19.91353,2.0911 -35.86033,7.97248 -47.90669,17.66858 -3.15538,2.53975 -3.09428,2.54001 -6.27267,-0.0276 z m -11.94562,-15.41582 c -6.79714,-5.96789 -16.86727,-10.94078 -25.96121,-12.82033 l -3.21201,-0.66385 -0.0957,-20.78761 -0.0957,-20.78759 -1.50541,-0.40536 c -4.16524,-1.12159 -3.8484,-2.9953 -3.95514,23.39074 -0.0752,18.57608 0.003,23.64655 0.37044,23.93911 0.25616,0.20416 1.8827,0.56765 3.6145,0.80777 9.83101,1.36309 19.98381,4.0058 27.783,7.23176 4.06378,1.68089 4.89249,1.70672 3.0572,0.0953 z M 499.71275,356.78 v -24.58686 l -2.31525,-3.2822 c -4.32284,-6.12825 -12.51451,-13.52673 -19.1741,-17.31747 -3.19017,-1.81588 -2.95969,-3.52776 -2.95969,21.98414 v 22.61758 l 1.70704,1.00959 c 7.59028,4.48911 14.98193,12.14594 20.19625,20.92074 1.05938,1.78275 2.06555,3.24135 2.23595,3.24135 0.17039,0 0.3098,-11.06409 0.3098,-24.58687 z m -11.48364,18.53115 c 0,-1.81127 -8.28231,-9.55728 -13.6117,-12.73034 -1.78382,-1.06207 -3.61839,-2.19507 -4.07681,-2.51776 -0.83349,-0.58673 -0.83349,-0.58673 -0.83349,-20.87282 0,-15.68067 -0.10507,-20.41435 -0.46305,-20.85097 -0.51706,-0.63076 -5.15138,-1.62817 -6.01867,-1.29536 -0.7608,0.29195 -0.85259,46.5826 -0.0935,47.19547 0.25467,0.20565 2.54677,0.99992 5.09355,1.76506 6.79938,2.04276 10.73297,3.97147 18.15156,8.89997 1.52127,1.01062 1.8522,1.0833 1.8522,0.40675 z m 24.0786,-10.26419 c 0,-0.21504 1.10586,-3.50732 2.45748,-7.31619 1.35163,-3.80886 3.16355,-8.92557 4.02651,-11.37048 0.86296,-2.4449 1.84082,-5.09074 2.17302,-5.87967 1.35452,-3.21678 0.28908,-3.84444 -4.84176,-2.85236 -5.65283,1.09302 -5.83048,0.97502 -4.27171,-2.83747 0.65332,-1.59787 1.58946,-4.06591 2.08032,-5.48452 0.49087,-1.41861 1.63382,-4.41297 2.53992,-6.65414 0.90611,-2.24116 1.76352,-4.54715 1.90538,-5.12442 0.14187,-0.57727 1.55572,-4.41132 3.1419,-8.52012 1.5862,-4.10879 3.74632,-9.80431 4.80024,-12.6567 1.05396,-2.85238 2.32466,-6.18634 2.82382,-7.4088 l 0.90755,-2.22264 9.50157,-0.099 9.50158,-0.099 -2.11613,3.98856 c -2.77122,5.22333 -8.15609,15.0783 -11.28796,20.65835 -7.55901,13.46795 -8.21807,15.20177 -5.65322,14.87213 5.52933,-0.71063 8.98317,-0.73552 8.98317,-0.0647 0,0.50677 -16.02397,24.8955 -24.64973,37.51727 -1.25681,1.83906 -2.02195,2.42704 -2.02195,1.55383 z"
       id="path13" /><path
       style="display:inline;fill:#15db95;fill-opacity:1;stroke-width:1.15762"
       d="m 499.52753,396.00424 c -11.27617,-9.10917 -27.17667,-15.14579 -45.74934,-17.36871 -2.75052,-0.3292 -5.37601,-0.66984 -5.83443,-0.75701 -0.83349,-0.15846 -0.83349,-0.15846 -0.83349,-29.78659 v -29.62815 l 1.94481,0.0244 c 1.06964,0.0134 3.44509,0.24137 5.27877,0.50653 4.19204,0.60624 3.88962,0.93723 3.88962,-4.2572 0,-5.20658 -0.64917,-4.83551 6.10762,-3.49108 5.80208,1.15447 5.37602,1.55304 5.37602,-5.02904 0,-6.65143 -0.34817,-6.43291 5.67717,-3.56318 9.89386,4.7122 19.51135,12.42265 25.61107,20.53266 1.86286,2.47684 2.08647,2.45202 5.0025,-0.55566 2.11573,-2.18218 7.95421,-6.35095 8.346,-5.95917 0.93202,0.93203 -2.96077,7.82275 -5.20359,9.21101 -3.78992,2.34591 -3.68569,1.45141 -3.68569,31.63116 0,29.78523 -0.084,28.73265 2.10049,26.29376 8.90582,-9.94257 19.41023,-16.11465 34.66568,-20.36859 0.7147,-0.19929 0.67373,-47.51108 -0.0414,-47.7855 -0.27743,-0.1065 -1.63552,0.0688 -3.01797,0.38935 -1.38243,0.32062 -2.59933,0.49712 -2.70418,0.39228 -0.20496,-0.20497 1.61057,-3.79112 2.29416,-4.53163 0.34469,-0.37337 6.37598,-1.58336 7.91697,-1.58831 0.37028,-10e-4 0.44596,5.75789 0.37044,28.18938 l -0.0949,28.19085 -1.48176,0.48634 c -0.81497,0.26749 -2.48195,0.6862 -3.7044,0.93046 -6.08535,1.21596 -15.81867,5.96363 -21.96553,10.71423 -4.81044,3.71774 -4.72544,4.05605 0.4752,1.89161 7.73294,-3.21837 17.20717,-5.79851 26.1092,-7.11036 2.96066,-0.4363 5.59138,-0.95706 5.84606,-1.15725 0.51776,-0.40698 0.6931,-46.43493 0.17955,-47.13393 -0.1497,-0.20374 -0.60556,-0.55446 -1.01304,-0.77938 -3.12187,-1.72323 -0.8559,-5.63285 3.34755,-5.7757 l 3.32037,-0.11287 v 29.62872 29.62871 l -4.35016,0.45681 c -19.91353,2.09111 -35.86033,7.9725 -47.90669,17.66859 -3.15538,2.53974 -3.09428,2.54001 -6.27267,-0.0276 z m -11.94562,-15.41583 c -6.79714,-5.96787 -16.86727,-10.94077 -25.96121,-12.82032 l -3.21201,-0.66387 -0.0957,-20.7876 -0.0957,-20.78758 -1.50541,-0.40538 c -4.16524,-1.12157 -3.8484,-2.99529 -3.95514,23.39075 -0.0752,18.57608 0.003,23.64654 0.37044,23.93912 0.25616,0.20416 1.8827,0.56766 3.6145,0.80776 9.83101,1.36308 19.98381,4.0058 27.783,7.23176 4.06378,1.68089 4.89249,1.70673 3.0572,0.0953 z m 12.13084,-24.84802 v -24.58688 l -2.31525,-3.2822 c -4.32284,-6.12824 -12.51451,-13.52672 -19.1741,-17.31745 -3.19017,-1.81589 -2.95969,-3.52775 -2.95969,21.98413 v 22.61758 l 1.70704,1.00959 c 7.59028,4.48913 14.98193,12.14594 20.19625,20.92075 1.05938,1.78274 2.06555,3.24135 2.23595,3.24135 0.17039,0 0.3098,-11.06411 0.3098,-24.58687 z m -11.48364,18.53114 c 0,-1.81126 -8.28231,-9.55729 -13.6117,-12.73034 -1.78382,-1.06207 -3.61839,-2.19505 -4.07681,-2.51775 -0.83349,-0.58673 -0.83349,-0.58673 -0.83349,-20.87284 0,-15.68066 -0.10507,-20.41434 -0.46305,-20.85096 -0.51706,-0.63074 -5.15138,-1.62816 -6.01867,-1.29536 -0.7608,0.29194 -0.85259,46.5826 -0.0935,47.19547 0.25467,0.20565 2.54677,0.99993 5.09355,1.76507 6.79938,2.04277 10.73297,3.97146 18.15156,8.89995 1.52127,1.01063 1.8522,1.0833 1.8522,0.40676 z"
       id="path11" /><path
       style="display:inline;fill:#0d19a3;fill-opacity:1;stroke:#15db95;stroke-width:1.15762;stroke-linecap:round;stroke-opacity:1"
       d="m 499.87318,395.6732 c -11.88524,-9.53818 -35.04659,-17.90294 -49.67478,-17.9401 -2.98783,-0.007 -2.71598,2.96292 -2.71598,-29.67876 0,-33.20716 -0.62044,-29.6275 5.00094,-28.85334 5.49697,0.75702 5.00094,0.44275 5.00094,3.16856 0,2.39545 0,2.39545 -1.57437,2.13207 -3.82665,-0.64018 -3.4142,-3.43006 -3.52184,23.8226 -0.0752,19.01537 0.003,24.20494 0.37044,24.50756 0.25614,0.21115 2.38274,0.66204 4.72577,1.00199 12.50304,1.81401 22.04971,4.69795 33.43349,10.09991 5.07097,2.40633 5.1429,2.39227 3.58996,-0.70305 -5.10756,-10.18024 -13.76122,-19.39803 -22.20585,-23.65341 -0.91684,-0.46201 -1.78944,-1.02601 -1.93913,-1.2533 -0.44102,-0.66973 -0.34618,-56.82293 0.0965,-57.09649 0.6044,-0.37353 9.79127,4.30848 14.22108,7.24765 6.02656,3.99861 14.39819,12.41151 19.4044,19.50001 0.83437,1.18143 0.83437,1.18143 0.82074,28.41157 -0.013,25.84309 0.13648,32.45571 0.73326,32.45571 0.14368,0 2.32307,-1.25024 4.84308,-2.7783 2.52004,-1.52807 4.73199,-2.7783 4.91545,-2.7783 0.18345,0 1.7725,-0.64764 3.53121,-1.43921 7.46271,-3.35879 17.54259,-6.23927 26.83713,-7.66911 3.5014,-0.53863 6.57577,-1.14817 6.83192,-1.35448 0.99147,-0.79859 0.44736,-48.17639 -0.55835,-48.61762 -0.72518,-0.31815 -0.83349,-0.64217 -0.83349,-2.4934 0,-2.44652 -0.0123,-2.43868 4.07484,-2.60157 l 2.40786,-0.0959 v 29.26476 29.26476 l -3.33396,0.2758 c -19.19369,1.58782 -37.14456,8.20267 -49.20829,18.13314 -2.63941,2.17266 -2.1872,2.19665 -5.27289,-0.27969 z m 0.21172,-39.5989 v -25.35927 l -2.83377,-3.76188 c -5.08848,-6.75502 -13.52589,-14.21587 -19.52274,-17.26312 -3.05533,-1.55256 -2.83341,-3.32721 -2.83341,22.65775 v 23.17323 l 1.72848,1.00959 c 7.94369,4.63988 15.44304,12.54808 20.8887,22.02752 2.70454,4.70788 2.57274,5.85969 2.57274,-22.48382 z"
       id="path9" /></g><g
     id="g15"
     transform="matrix(3.8097638,0,0,3.8097638,-1.2204823,-1.2465517)"><g
       id="layer6"
       inkscape:label="abstract_page"><path
         d="m 117.57898,78.097563 c -11.24422,-0.07727 -22.375598,0.283115 -31.448308,9.086783 -6.746333,9.955962 -6.74624,9.955982 -6.80682,36.698574 0.0093,1.60112 0.01519,3.15481 0.02429,4.70875 0,4.23497 4.23e-4,8.46985 0.0155,12.70465 0.01897,4.38664 0.03373,8.77321 0.03359,13.15993 0,3.45564 0.0034,6.9121 0.0093,10.36784 0.0031,1.68681 0.0096,3.32424 0.0124,4.96145 0.01079,13.78318 -1.194517,28.25263 7.340637,39.20794 5.818858,6.16531 11.911944,8.03328 19.874791,8.09098 0.79154,0 1.55972,2.2e-4 2.32804,-0.0119 2.63123,0.0116 5.26274,0.0117 7.89413,-5.2e-4 1.87759,0 3.75547,-0.0124 5.63326,-0.0124 3.92872,0 7.85752,2.1e-4 11.78585,-0.0119 5.09495,-0.0308 10.18917,-0.0436 15.28382,-0.0434 3.98485,0 7.96973,-1.1e-4 11.95431,-0.0124 1.9025,0 3.80469,-0.0119 5.70714,-0.0119 2.7261,0 5.45196,-2e-4 8.17831,-0.0124 0.85261,0 1.68031,-0.0119 2.50786,-0.0119 7.7798,0.006 13.44656,-0.40628 19.74351,-5.84564 4.87863,-5.1539 6.95754,-13.76532 7.44864,-21.12481 0.0121,-2.45735 0.0121,-2.45701 0.0243,-4.86585 0.023,-2.82883 0.0475,-5.65761 0.0475,-8.48682 0,-2.02455 -3.2e-4,-4.04935 0.0119,-6.07405 0.0156,-4.24331 0.0273,-8.48653 0.0279,-12.72997 -0.002,-5.49102 0.007,-10.98101 0.0439,-16.47186 0.03,-4.29347 0.0517,-8.58675 0.0517,-12.88035 v -6.17844 c 0.10638,-12.69117 0.88475,-25.689647 -6.48022,-36.162685 -7.25637,-8.063712 -7.25656,-8.063698 -31.05082,-7.998478 -1.68767,-2.37e-4 -3.37461,0 -5.06222,0 -3.54741,-2.37e-4 -7.09521,-0.0141 -10.64277,-5.17e-4 -4.57908,0.01358 -9.15839,0.02753 -13.73766,0.01395 -3.59089,-0.01358 -7.18173,-0.01395 -10.77247,-0.01395 -1.71995,0.01358 -3.44026,0.01395 -5.16041,0.01395 l -5.1e-4,-0.01654 c -1.60525,-0.0056 -3.21407,-0.02513 -4.82039,-0.03617 z"
         style="fill:#14da94;fill-opacity:0;stroke-width:1.59502"
         id="path44"
         inkscape:label="trans_inner_rect" /></g><g
       inkscape:label="dots"
       id="layer1"><path
         id="path14-4"
         clip-path="none"
         style="fill:#15db95;fill-opacity:1;stroke-width:0.209063"
         inkscape:label="mid"
         d="m 64.216272,21.875215 c 0.160505,-0.0021 0.320993,-0.0028 0.486328,-0.0043 0.530199,-0.0043 1.060324,-0.0066 1.590517,-0.0088 0.181582,0 0.36318,-0.0021 0.550222,-0.0025 0.961134,-0.0048 1.922291,-0.0074 2.883449,-0.0094 0.990328,-0.0023 1.980493,-0.0095 2.970734,-0.01801 0.763654,-0.0057 1.527272,-0.0072 2.290945,-0.008 0.364928,0 0.729832,-0.0035 1.094738,-0.0074 0.512094,-0.0052 1.023876,-0.005 1.535975,-0.0035 0.223612,-0.004 0.223612,-0.004 0.451711,-0.0084 1.295213,0.01338 2.358246,0.457544 3.332263,1.339866 0.09392,0.122066 0.187777,0.24412 0.284506,0.369868 0.09762,0.122608 0.195251,0.245221 0.295789,0.371528 0.53002,0.811453 0.50628,1.706673 0.553724,2.648701 0.0088,0.167691 0.01754,0.33536 0.02664,0.508118 0.08929,1.894702 0.09665,3.788748 0.09249,5.685317 -0.0023,0.594715 0,1.189389 0.0023,1.784106 0.0017,1.944403 -0.02282,3.887984 -0.09428,5.831093 -0.0046,0.173316 -0.0092,0.346654 -0.01401,0.525231 -0.05454,1.229839 -0.298974,2.14803 -1.130783,3.084158 -0.136702,0.119034 -0.273434,0.238107 -0.414276,0.36076 -0.135655,0.121227 -0.271304,0.242484 -0.411075,0.367384 -0.788747,0.575447 -1.530324,0.795409 -2.490544,0.832424 -0.297759,0.01225 -0.297759,0.01225 -0.601607,0.02496 -0.321376,0.0098 -0.321376,0.0098 -0.649243,0.01974 -0.226096,0.0079 -0.452208,0.01567 -0.68517,0.02389 -3.717024,0.116661 -7.436404,0.09948 -11.153369,-0.01071 -0.220596,-0.0046 -0.441207,-0.0097 -0.668512,-0.01445 -1.503766,-0.05491 -2.571292,-0.231991 -3.741864,-1.269862 -1.035605,-1.240363 -1.320394,-2.228512 -1.322867,-3.835476 -0.0011,-0.160924 -0.0023,-0.321861 -0.0028,-0.487661 -0.0028,-0.532725 -0.0046,-1.065419 -0.0058,-1.598144 -0.0011,-0.370739 -0.0023,-0.741474 -0.0035,-1.112198 -0.0023,-0.777811 -0.0035,-1.555623 -0.004,-2.333441 -0.0011,-0.99459 -0.0062,-1.989123 -0.01212,-2.983698 -0.004,-0.766166 -0.0053,-1.532326 -0.0053,-2.298509 -5.78e-4,-0.366514 -0.0023,-0.733053 -0.0053,-1.099565 -0.0035,-0.514065 -0.0028,-1.028 -0.0017,-1.542092 -0.0017,-0.150137 -0.0041,-0.300296 -0.0058,-0.454997 0.01238,-1.51237 0.508562,-2.677902 1.523654,-3.781377 1.134957,-0.815638 2.101047,-0.879687 3.45873,-0.884808 z M 31.730579,55.569337 c 0.325995,0 0.651951,0 0.977907,-0.0023 0.680503,0 1.361041,0 2.041574,0.0023 0.867845,0.0023 1.735696,0 2.603506,-0.0023 0.672321,-0.0023 1.344667,0 2.016959,4.1e-5 0.319831,0 0.639621,-4.1e-5 0.959462,0 4.509401,-0.01109 4.509401,-0.01109 5.884599,1.359884 1.395787,1.780603 1.248268,3.990571 1.228107,6.14829 0,0.350141 0,0.700243 0,1.050385 0,0.729989 -0.0041,1.459884 -0.0098,2.189855 -0.0071,0.933536 -0.0088,1.86696 -0.0084,2.800537 -1.05e-4,0.72146 -0.0023,1.44291 -0.0053,2.164348 -0.0023,0.344234 -0.0023,0.688471 -0.0023,1.032687 0,0.481011 -0.0046,0.96188 -0.009,1.442825 -0.0023,0.409545 -0.0023,0.409545 -0.0046,0.827351 -0.09307,1.251236 -0.487093,2.715316 -1.411669,3.591561 -1.193378,0.924786 -2.267308,0.994844 -3.741707,0.993882 -0.156834,0 -0.313652,0.0021 -0.475234,0.0021 -0.516692,0.0021 -1.033325,0.0021 -1.549964,0.0021 -0.360546,0 -0.721039,0.0021 -1.081596,0.0021 -0.755142,0.0021 -1.510307,0.0021 -2.265502,0.0021 -0.965523,-2.8e-5 -1.931,0.0021 -2.896575,0.0074 -0.744484,0.0021 -1.489001,0.0021 -2.233554,0.0021 -0.355874,0 -0.711745,0.0021 -1.067579,0.0021 -0.498689,0.0021 -0.997375,0.0021 -1.496035,1.91e-4 -0.145608,0.0021 -0.291216,0.0021 -0.441224,0.0021 -1.509126,-0.01013 -2.663914,-0.327636 -3.766684,-1.37585 -1.617553,-1.862574 -1.389117,-4.322672 -1.391162,-6.666038 -5.49e-4,-0.278363 -0.0017,-0.556769 -0.0023,-0.84356 -0.0011,-0.587536 -0.0017,-1.175084 -0.0017,-1.762605 2.5e-5,-0.74583 -0.0028,-1.49162 -0.0064,-2.237429 -0.0028,-0.71999 -0.0028,-1.439995 -0.0028,-2.160016 -0.0017,-0.264195 -0.0028,-0.528404 -0.0046,-0.800627 0.01148,-4.546704 0.01148,-4.546704 1.290021,-6.23939 1.965187,-1.711009 4.439785,-1.546629 6.873558,-1.539073 z M 25.427102,6.6555154 c 0.160476,-0.00206 0.320965,-0.00271 0.486289,-0.00426 0.53021,-0.00426 1.060335,-0.00658 1.590551,-0.00877 0.181559,0 0.363147,-0.00206 0.550188,-0.00258 0.961176,-0.00464 1.922299,-0.00735 2.883456,-0.00929 0.990323,-0.00232 1.980505,-0.00955 2.97074,-0.018046 0.763671,-0.00555 1.527309,-0.00722 2.290968,-0.008 0.3649,0 0.729805,-0.00335 1.094745,-0.00735 0.512053,-0.00503 1.02384,-0.0049 1.535935,-0.00335 0.223623,-0.004 0.223623,-0.004 0.451709,-0.00826 1.295225,0.013376 2.35826,0.4575458 3.33227,1.3398668 0.09391,0.1220657 0.187782,0.2441172 0.284523,0.369867 0.0976,0.1226074 0.195234,0.2452226 0.295778,0.3715257 0.530008,0.8114554 0.506269,1.7066791 0.553742,2.6487021 0.0088,0.167691 0.01754,0.335359 0.02662,0.508122 0.08929,1.894709 0.09665,3.788746 0.09249,5.685317 -0.0023,0.594716 0,1.189388 0.0023,1.784105 0.0017,1.944407 -0.02282,3.887989 -0.09427,5.831102 -0.0046,0.173312 -0.0092,0.346649 -0.01401,0.525227 -0.05455,1.229838 -0.298976,2.14803 -1.13079,3.084156 -0.136692,0.119048 -0.273383,0.238107 -0.414259,0.360762 -0.135661,0.121227 -0.271281,0.242485 -0.411087,0.367384 -0.788753,0.575442 -1.530324,0.795413 -2.490504,0.832424 -0.297792,0.01225 -0.297792,0.01225 -0.601635,0.02496 -0.321378,0.0097 -0.321378,0.0097 -0.649255,0.01974 -0.226101,0.0079 -0.452202,0.01567 -0.685176,0.02389 -3.717011,0.116661 -7.436393,0.09947 -11.153361,-0.01058 -0.220584,-0.0046 -0.441201,-0.0097 -0.668483,-0.01442 -1.5038,-0.05491 -2.571281,-0.231994 -3.741889,-1.26986 -1.035624,-1.240365 -1.320406,-2.228513 -1.322879,-3.835484 -0.0011,-0.160913 -0.0023,-0.321855 -0.0028,-0.487655 -0.0028,-0.53272 -0.0046,-1.065426 -0.0058,-1.598142 -0.0011,-0.370743 -0.0023,-0.741482 -0.0035,-1.1122 -0.0023,-0.777814 -0.0035,-1.555627 -0.004,-2.333437 -0.0012,-0.9946 -0.0062,-1.989126 -0.01212,-2.983703 -0.004,-0.766164 -0.0053,-1.532322 -0.0053,-2.298507 -5.78e-4,-0.366513 -0.0023,-0.733054 -0.0053,-1.099572 -0.0035,-0.514066 -0.0028,-1.028002 -0.0017,-1.542088 -0.0017,-0.150138 -0.0041,-0.300299 -0.0058,-0.454999 0.01251,-1.5123747 0.508574,-2.6779057 1.523661,-3.7813807 C 23.104142,6.7250978 24.07021,6.661044 25.427893,6.6559269 Z M 109.7348,52.405591 v 5.17e-4 c -15.344566,-0.106205 -30.535159,0.388923 -42.916297,12.488643 -9.206441,13.683346 -9.206139,13.683594 -9.288838,50.438299 0.0127,2.20057 0.02077,4.33623 0.03307,6.47196 0,5.82049 7.2e-5,11.64068 0.02067,17.46095 0.0259,6.02894 0.0467,12.05819 0.04651,18.08727 0,4.74938 0.0044,9.49871 0.0124,14.24822 0.0044,2.31834 0.01254,4.56907 0.01654,6.81922 0.01473,18.94345 -1.63013,38.83029 10.017476,53.88715 7.940784,8.47353 16.256334,11.04091 27.122892,11.12026 1.080178,0 2.128579,8e-5 3.177067,-0.0165 3.59074,0.0159 7.18154,0.0157 10.77251,-10e-4 2.56229,0 5.12486,-0.0165 7.68743,-0.0165 5.3614,0 10.72294,7e-5 16.0838,-0.0165 6.95289,-0.0423 13.90464,-0.0591 20.85712,-0.0589 5.43798,0 10.87614,-2.1e-4 16.31374,-0.0171 2.59627,0 5.19194,-0.0171 7.78815,-0.0171 3.7202,0 7.44051,3.3e-4 11.16108,-0.0165 1.16354,0 2.29268,-0.0165 3.42201,-0.0165 10.61679,0.008 18.34985,-0.55834 26.94306,-8.03413 6.65769,-7.08346 9.49509,-18.91908 10.16527,-29.03389 0.0166,-3.37736 0.0165,-3.37728 0.0331,-6.68796 0.0314,-3.88792 0.0646,-7.77494 0.0646,-11.66337 0,-2.78253 -2e-5,-5.5656 0.0165,-8.34833 0.0214,-5.83197 0.0375,-11.66393 0.0382,-17.49609 -0.003,-7.54679 0.009,-15.09237 0.0599,-22.63893 0.041,-5.9009 0.0703,-11.80117 0.0703,-17.70228 v -8.49147 c 0.14525,-17.442626 1.20784,-35.307369 -8.84287,-49.701395 -9.9025,-11.082686 -9.90302,-11.082772 -42.37416,-10.993127 -2.3031,-3.31e-4 -4.60558,0 -6.90862,0 -4.84101,-3.31e-4 -9.68243,-0.0187 -14.52366,0 -6.2489,0.0187 -12.49802,0.03679 -18.74718,0.01809 -4.90037,-0.0187 -9.80075,-0.01809 -14.70091,-0.01809 -2.34714,0.0187 -4.69453,0.01809 -7.04197,0.01809 l -10e-4,-0.02274 c -2.19064,-0.0076 -4.38585,-0.03496 -6.57793,-0.05013 z m 8.7468,25.691972 c 1.60632,0.01104 3.21514,0.03061 4.82039,0.03617 l 5.1e-4,0.01654 c 1.72015,0 3.44046,-3.74e-4 5.16041,-0.01395 3.59074,0 7.18158,3.75e-4 10.77247,0.01395 4.57927,0.01358 9.15858,-3.74e-4 13.73766,-0.01395 3.54756,-0.01358 7.09536,2.8e-4 10.64277,5.17e-4 1.68761,0 3.37455,-2.37e-4 5.06222,0 23.79426,-0.06522 23.79445,-0.06523 31.05082,7.998478 7.36497,10.473038 6.5866,23.471512 6.48022,36.162682 v 6.17844 c 0,4.2936 -0.0217,8.58688 -0.0517,12.88035 -0.0373,5.49085 -0.046,10.98084 -0.0439,16.47186 -5.6e-4,4.24344 -0.0123,8.48666 -0.0279,12.72997 -0.0122,2.0247 -0.0119,4.0495 -0.0119,6.07405 0,2.82921 -0.0245,5.65799 -0.0475,8.48682 -0.0122,2.40884 -0.0122,2.4085 -0.0243,4.86585 -0.49109,7.35949 -2.57,15.97091 -7.44864,21.12481 -6.29694,5.43936 -11.9637,5.85137 -19.7435,5.84564 -0.82755,0 -1.65525,0.0119 -2.50786,0.0119 -2.72635,0.0122 -5.45221,0.0124 -8.17831,0.0124 -1.90245,0 -3.80464,0.0119 -5.70714,0.0119 -3.98458,0.0123 -7.96946,0.0124 -11.95431,0.0124 -5.09465,-1.9e-4 -10.18888,0.0126 -15.28383,0.0434 -3.92832,0.0121 -7.85712,0.0119 -11.78584,0.0119 -1.87779,0 -3.75567,0.0124 -5.63326,0.0124 -2.6314,0.0122 -5.2629,0.0121 -7.89414,5.2e-4 -0.76832,0.0121 -1.5365,0.0119 -2.32803,0.0119 -7.962854,-0.0577 -14.05594,-1.92567 -19.874798,-8.09098 -8.535154,-10.95531 -7.329847,-25.42476 -7.340637,-39.20794 -0.0028,-1.63721 -0.0093,-3.27464 -0.0124,-4.96145 -0.0059,-3.45574 -0.0093,-6.9122 -0.0093,-10.36784 1.36e-4,-4.38672 -0.01462,-8.77329 -0.03359,-13.15993 -0.01508,-4.2348 -0.0155,-8.46968 -0.0155,-12.70465 -0.0091,-1.55394 -0.01494,-3.10763 -0.02429,-4.70875 0.06058,-26.742589 0.06049,-26.742609 6.80682,-36.698571 9.07271,-8.803668 20.204085,-9.164057 31.448315,-9.086783 z" /></g></g></svg>
